HIERARCHY
ROOT joint_Root
{
	OFFSET 0.0 0.0 0.0
	CHANNELS 6 Xposition Yposition Zposition Zrotation Xrotation Yrotation 
	JOINT Hips
	{
		OFFSET -0.726466 93.3139 -2.00062
		CHANNELS 6 Xposition Yposition Zposition Zrotation Xrotation Yrotation 
		JOINT Spine
		{
			OFFSET 15.7357 0.0 0.0
			CHANNELS 6 Xposition Yposition Zposition Zrotation Xrotation Yrotation 
			JOINT Chest
			{
				OFFSET 8.98455 -0.406207 0.0
				CHANNELS 6 Xposition Yposition Zposition Zrotation Xrotation Yrotation 
				JOINT Neck
				{
					OFFSET 16.3773 0.0 0.0
					CHANNELS 6 Xposition Yposition Zposition Zrotation Xrotation Yrotation 
					JOINT Head
					{
						OFFSET 6.45672 0.0 0.0
						CHANNELS 6 Xposition Yposition Zposition Zrotation Xrotation Yrotation 
						End Site
						{
							OFFSET 0.0 0.0 0.0
						}
					}
				}
				JOINT Shoulder_L
				{
					OFFSET 12.9942 -0.242716 4.98039
					CHANNELS 6 Xposition Yposition Zposition Zrotation Xrotation Yrotation 
					JOINT UpperArm_L
					{
						OFFSET 5.34809 0.0 0.0
						CHANNELS 6 Xposition Yposition Zposition Zrotation Xrotation Yrotation 
						JOINT LowerArm_L
						{
							OFFSET 24.3286 1.87007e-05 0.0
							CHANNELS 6 Xposition Yposition Zposition Zrotation Xrotation Yrotation 
							JOINT Hand_L
							{
								OFFSET 22.2916 0.0 0.0
								CHANNELS 6 Xposition Yposition Zposition Zrotation Xrotation Yrotation 
								End Site
								{
									OFFSET 0.0 0.0 0.0
								}
							}
						}
					}
				}
				JOINT Shoulder_R
				{
					OFFSET 12.9945 -0.242716 -4.98039
					CHANNELS 6 Xposition Yposition Zposition Zrotation Xrotation Yrotation 
					JOINT UpperArm_R
					{
						OFFSET -5.34813 0.0 0.0
						CHANNELS 6 Xposition Yposition Zposition Zrotation Xrotation Yrotation 
						JOINT LowerArm_R
						{
							OFFSET -24.3289 0.000322201 0.0
							CHANNELS 6 Xposition Yposition Zposition Zrotation Xrotation Yrotation 
							JOINT Hand_R
							{
								OFFSET -22.2915 -0.000108084 0.0
								CHANNELS 6 Xposition Yposition Zposition Zrotation Xrotation Yrotation 
								End Site
								{
									OFFSET 0.0 0.0 0.0
								}
							}
						}
					}
				}
			}
		}
		JOINT UpperLeg_L
		{
			OFFSET -2.19248 -6.46944 0.0
			CHANNELS 6 Xposition Yposition Zposition Zrotation Xrotation Yrotation 
			JOINT LowerLeg_L
			{
				OFFSET 39.0811 0.0 -1.23785e-05
				CHANNELS 6 Xposition Yposition Zposition Zrotation Xrotation Yrotation 
				JOINT Foot_L
				{
					OFFSET 40.9854 0.0 -1.26872e-05
					CHANNELS 6 Xposition Yposition Zposition Zrotation Xrotation Yrotation 
					JOINT Toes_L
					{
						OFFSET 11.7543 0.0 0.0
						CHANNELS 6 Xposition Yposition Zposition Zrotation Xrotation Yrotation 
						End Site
						{
							OFFSET 0.0 0.0 0.0
						}
					}
				}
			}
		}
		JOINT UpperLeg_R
		{
			OFFSET -2.19251 6.46944 0.0
			CHANNELS 6 Xposition Yposition Zposition Zrotation Xrotation Yrotation 
			JOINT LowerLeg_R
			{
				OFFSET -39.0811 -0.00228153 -0.0401928
				CHANNELS 6 Xposition Yposition Zposition Zrotation Xrotation Yrotation 
				JOINT Foot_R
				{
					OFFSET -40.9854 0.0 0.0
					CHANNELS 6 Xposition Yposition Zposition Zrotation Xrotation Yrotation 
					JOINT Toes_R
					{
						OFFSET -11.7543 0.0 0.0
						CHANNELS 6 Xposition Yposition Zposition Zrotation Xrotation Yrotation 
						End Site
						{
							OFFSET 0.0 0.0 0.0
						}
					}
				}
			}
		}
	}
}
MOTION
Frames:	9
Frame Time:	0.0333333
0.000000 0.000000 0.000000 0.000000 0.000000 -0.000000 -0.913888 92.035300 -1.361020 87.943500 -1.500160 5.209660 15.735700 0.000005 -0.000001 76.325900 87.954000 -75.813700 8.984550 -0.406207 -0.000000 -3.785540 -1.018370 0.991150 16.377300 -0.000001 -0.000001 -4.895250 -2.824430 0.865901 6.456720 -0.000001 -0.000000 -2.687130 -3.088080 0.976144 12.994200 -0.242716 4.980390 -85.291300 -10.575300 -65.829400 5.348090 -0.000007 -0.000001 -57.818900 -51.401200 -84.571900 24.328600 0.000019 0.000005 -1.878670 -1.042620 -60.981100 22.291600 -0.000001 0.000005 15.657100 5.613880 -12.209700 12.994500 -0.242716 -4.980390 92.033100 -4.874460 -67.326000 -5.348130 -0.000001 -0.000004 -48.531300 -51.283400 -93.194000 -24.328900 0.000322 -0.000009 -6.005610 -6.097270 -44.719800 -22.291500 -0.000108 -0.000004 16.933000 5.601490 -11.431600 -2.192480 -6.469440 -0.000000 -168.470000 -17.806400 -1.343010 39.081100 -0.000007 -0.000012 -0.176351 0.433239 22.149100 40.985400 -0.000006 -0.000013 -7.059980 -2.146340 -63.181600 11.754300 -0.000000 0.000003 -0.000097 -0.001000 -16.615900 -2.192510 6.469440 -0.000001 173.797000 21.063500 -179.687000 -39.081100 -0.002282 -0.040193 -0.003186 0.017283 20.629500 -40.985400 0.000008 0.000006 -2.352420 0.390768 -63.464200 -11.754300 -0.000006 -0.000006 -0.004549 -0.057038 -18.893600
0.000000 0.000000 0.000000 0.000000 0.000000 -0.000000 -0.940071 92.036600 -1.411400 87.945500 -1.502190 5.229210 15.735700 0.000005 -0.000001 76.428700 87.928300 -75.923100 8.984550 -0.406207 -0.000000 -3.733880 -1.022410 0.978274 16.377300 -0.000001 -0.000001 -4.899050 -2.871690 0.851910 6.456720 -0.000001 -0.000000 -2.792660 -3.187120 1.033250 12.994200 -0.242716 4.980390 -85.296500 -10.586900 -65.876300 5.348090 -0.000007 -0.000001 -57.826200 -51.365400 -84.293200 24.328600 0.000019 0.000005 -1.521330 -0.840354 -61.092100 22.291600 -0.000001 0.000005 15.454800 5.613220 -12.166300 12.994500 -0.242716 -4.980390 92.031800 -4.851360 -67.242100 -5.348130 -0.000001 -0.000004 -48.611100 -51.248100 -93.116300 -24.328900 0.000322 -0.000009 -5.964090 -6.062030 -44.685000 -22.291500 -0.000108 -0.000004 16.851900 5.601010 -11.403000 -2.192480 -6.469440 -0.000000 -168.452000 -17.829900 -1.353910 39.081100 -0.000007 -0.000012 -0.176748 0.434395 22.140700 40.985400 -0.000006 -0.000013 -7.056930 -2.105280 -63.134800 11.754300 -0.000000 0.000003 -0.000112 -0.001133 -16.620900 -2.192510 6.469440 -0.000001 173.820000 20.995500 -179.712000 -39.081100 -0.002282 -0.040193 -0.004443 0.020609 20.641100 -40.985400 0.000008 0.000006 -2.401640 0.363246 -63.445500 -11.754300 -0.000006 -0.000006 -0.004454 -0.056085 -18.854700
0.000000 0.000000 0.000000 0.000000 0.000000 -0.000000 -0.992169 92.033300 -1.461460 87.920300 -1.481750 5.212140 15.735700 0.000005 -0.000001 76.183200 87.906400 -75.675600 8.984550 -0.406207 -0.000000 -3.695460 -1.050140 0.981677 16.377300 -0.000001 -0.000001 -4.908440 -2.931480 0.898986 6.456720 -0.000001 -0.000000 -2.819880 -3.250660 1.061090 12.994200 -0.242716 4.980390 -85.302200 -10.585400 -65.898900 5.348090 -0.000007 -0.000001 -57.866900 -51.313800 -84.081900 24.328600 0.000019 0.000005 -1.341070 -0.736803 -61.220700 22.291600 -0.000001 0.000005 15.310800 5.612220 -12.101400 12.994500 -0.242716 -4.980390 92.024600 -4.824750 -67.203200 -5.348130 -0.000001 -0.000004 -48.603400 -51.261700 -92.968300 -24.328900 0.000322 -0.000009 -5.963940 -6.048320 -44.748800 -22.291500 -0.000108 -0.000004 16.822900 5.600290 -11.359600 -2.192480 -6.469440 -0.000000 -168.410000 -17.781700 -1.425240 39.081100 -0.000007 -0.000012 -0.176411 0.433050 22.164600 40.985400 -0.000006 -0.000013 -7.087080 -2.118540 -63.104000 11.754300 -0.000000 0.000003 -0.000105 -0.001071 -16.618600 -2.192510 6.469440 -0.000001 173.916000 20.933900 -179.799000 -39.081100 -0.002282 -0.040193 -0.005311 0.022839 20.701400 -40.985400 0.000008 0.000006 -2.387370 0.269947 -63.461300 -11.754300 -0.000006 -0.000006 -0.004681 -0.058349 -18.947000
0.000000 0.000000 0.000000 0.000000 0.000000 -0.000000 -1.028890 92.042500 -1.488230 87.914300 -1.482530 5.213860 15.735700 0.000005 -0.000001 76.152500 87.885200 -75.649800 8.984550 -0.406207 -0.000000 -3.654720 -1.061830 0.971892 16.377300 -0.000001 -0.000001 -4.868010 -2.983270 0.952547 6.456720 -0.000001 -0.000000 -2.804910 -3.282570 1.100970 12.994200 -0.242716 4.980390 -85.312900 -10.580200 -65.937600 5.348090 -0.000007 -0.000001 -57.910400 -51.253800 -83.895000 24.328600 0.000019 0.000005 -1.446320 -0.790815 -61.337700 22.291600 -0.000001 0.000005 14.992800 5.611630 -12.062700 12.994500 -0.242716 -4.980390 92.018800 -4.805770 -67.180800 -5.348130 -0.000001 -0.000004 -48.518200 -51.280500 -92.756200 -24.328900 0.000322 -0.000009 -5.890210 -5.959380 -44.812700 -22.291500 -0.000108 -0.000004 17.020500 5.600330 -11.361800 -2.192480 -6.469440 -0.000000 -168.382000 -17.823600 -1.404780 39.081100 -0.000007 -0.000012 -0.175255 0.431789 22.091600 40.985400 -0.000006 -0.000013 -7.092480 -2.090370 -63.037200 11.754300 -0.000000 0.000003 -0.000097 -0.001001 -16.616000 -2.192510 6.469440 -0.000001 173.979000 20.907600 -179.831000 -39.081100 -0.002282 -0.040193 -0.000446 0.009962 20.710100 -40.985400 0.000008 0.000006 -2.207790 0.224901 -63.462600 -11.754300 -0.000006 -0.000006 -0.004393 -0.055471 -18.829700
0.000000 0.000000 0.000000 0.000000 0.000000 -0.000000 -1.073850 92.032100 -1.501430 87.910200 -1.481080 5.217540 15.735700 0.000005 -0.000001 76.045200 87.856200 -75.544200 8.984550 -0.406207 -0.000000 -3.600390 -1.083070 0.968222 16.377300 -0.000001 -0.000001 -4.777810 -2.995840 0.994408 6.456720 -0.000001 -0.000000 -2.826310 -3.257450 1.122220 12.994200 -0.242716 4.980390 -85.330600 -10.532500 -65.923300 5.348090 -0.000007 -0.000001 -57.978200 -51.159800 -83.806500 24.328600 0.000019 0.000005 -1.452500 -0.791513 -61.418900 22.291600 -0.000001 0.000005 14.502500 5.609540 -11.930600 12.994500 -0.242716 -4.980390 92.004100 -4.762830 -67.147200 -5.348130 -0.000001 -0.000004 -48.468600 -51.269100 -92.610100 -24.328900 0.000322 -0.000009 -5.848160 -5.897080 -44.906000 -22.291500 -0.000108 -0.000004 17.138500 5.599520 -11.313600 -2.192480 -6.469440 -0.000000 -168.355000 -17.785500 -1.441060 39.081100 -0.000007 -0.000012 -0.175932 0.432311 22.144500 40.985400 -0.000006 -0.000013 -7.130200 -2.140390 -63.047000 11.754300 -0.000000 0.000003 -0.000092 -0.000962 -16.614500 -2.192510 6.469440 -0.000001 174.004000 20.961200 -179.878000 -39.081100 -0.002282 -0.040193 -0.002123 0.014320 20.812900 -40.985400 0.000008 0.000006 -2.191720 0.244968 -63.519200 -11.754300 -0.000006 -0.000006 -0.004705 -0.058577 -18.956300
0.000000 0.000000 0.000000 0.000000 0.000000 -0.000000 -1.118220 92.033500 -1.491710 87.907600 -1.471230 5.277190 15.735700 0.000005 -0.000001 76.451800 87.821200 -75.955000 8.984550 -0.406207 -0.000000 -3.525220 -1.069200 0.960959 16.377300 -0.000001 -0.000001 -4.678720 -3.033700 1.013520 6.456720 -0.000001 -0.000000 -2.677830 -3.306920 1.137660 12.994200 -0.242716 4.980390 -85.349000 -10.512500 -65.967800 5.348090 -0.000007 -0.000001 -57.906700 -51.035800 -83.587300 24.328600 0.000019 0.000005 -1.223990 -0.664031 -61.524700 22.291600 -0.000001 0.000005 14.044000 5.608920 -11.890500 12.994500 -0.242716 -4.980390 91.999600 -4.737480 -67.084600 -5.348130 -0.000001 -0.000004 -48.381500 -51.240700 -92.386600 -24.328900 0.000322 -0.000009 -5.866700 -5.891490 -45.024400 -22.291500 -0.000108 -0.000004 17.113600 5.598500 -11.253100 -2.192480 -6.469440 -0.000000 -168.298000 -17.775500 -1.347590 39.081100 -0.000007 -0.000012 -0.176272 0.434292 22.091700 40.985400 -0.000006 -0.000013 -7.160300 -2.130680 -63.014600 11.754300 -0.000000 0.000003 -0.000097 -0.001005 -16.616100 -2.192510 6.469440 -0.000001 174.003000 21.027400 -179.803000 -39.081100 -0.002282 -0.040193 -0.002968 0.016545 20.809100 -40.985400 0.000008 0.000006 -2.217080 0.266346 -63.526400 -11.754300 -0.000006 -0.000006 -0.004583 -0.057375 -18.907300
0.000000 0.000000 0.000000 0.000000 0.000000 -0.000000 -1.160160 92.015700 -1.480680 87.889800 -1.439390 5.294920 15.735700 0.000005 -0.000001 76.218700 87.790900 -75.717600 8.984550 -0.406207 -0.000000 -3.470370 -1.101030 0.969043 16.377300 -0.000001 -0.000001 -4.562270 -3.059460 1.027960 6.456720 -0.000001 -0.000000 -2.492020 -3.317470 1.140810 12.994200 -0.242716 4.980390 -85.366800 -10.466200 -65.957100 5.348090 -0.000007 -0.000001 -57.591000 -50.941600 -83.244700 24.328600 0.000019 0.000005 -0.896150 -0.485392 -61.561300 22.291600 -0.000001 0.000005 13.951000 5.606960 -11.767200 12.994500 -0.242716 -4.980390 92.001700 -4.728810 -67.024800 -5.348130 -0.000001 -0.000004 -48.323100 -51.143500 -92.212100 -24.328900 0.000322 -0.000009 -5.942540 -5.954910 -45.089400 -22.291500 -0.000108 -0.000004 17.042200 5.599730 -11.326700 -2.192480 -6.469440 -0.000000 -168.240000 -17.719800 -1.374840 39.081100 -0.000007 -0.000012 -0.177220 0.434559 22.186700 40.985400 -0.000006 -0.000013 -7.192930 -2.083350 -63.059800 11.754300 -0.000000 0.000003 -0.000097 -0.001000 -16.615900 -2.192510 6.469440 -0.000001 174.015000 21.062800 -179.807000 -39.081100 -0.002282 -0.040193 -0.006063 0.024558 20.909500 -40.985400 0.000008 0.000006 -2.268250 0.316267 -63.603200 -11.754300 -0.000006 -0.000006 -0.004502 -0.056568 -18.874400
0.000000 0.000000 0.000000 0.000000 0.000000 -0.000000 -1.199540 92.023800 -1.460430 87.902400 -1.415710 5.352910 15.735700 0.000005 -0.000001 76.098200 87.744400 -75.607900 8.984550 -0.406207 -0.000000 -3.382210 -1.130990 0.947440 16.377300 -0.000001 -0.000001 -4.370560 -3.082860 1.036210 6.456720 -0.000001 -0.000000 -2.437730 -3.355410 1.185330 12.994200 -0.242716 4.980390 -85.366600 -10.449800 -65.923200 5.348090 -0.000007 -0.000001 -57.413400 -50.854000 -83.022500 24.328600 0.000019 0.000005 -0.672200 -0.363864 -61.576100 22.291600 -0.000001 0.000005 13.571400 5.605200 -11.657100 12.994500 -0.242716 -4.980390 91.973400 -4.656810 -67.003300 -5.348130 -0.000001 -0.000004 -48.085500 -51.096900 -91.949300 -24.328900 0.000322 -0.000009 -5.932250 -5.941130 -45.105500 -22.291500 -0.000108 -0.000004 17.037100 5.598730 -11.266600 -2.192480 -6.469440 -0.000000 -168.215000 -17.679100 -1.246500 39.081100 -0.000007 -0.000012 -0.175614 0.432946 22.079000 40.985400 -0.000006 -0.000013 -7.216970 -2.095020 -63.019000 11.754300 -0.000000 0.000003 -0.000099 -0.001019 -16.616600 -2.192510 6.469440 -0.000001 174.003000 21.160400 -179.731000 -39.081100 -0.002282 -0.040193 -0.002439 0.015066 20.920000 -40.985400 0.000008 0.000006 -2.054030 0.332058 -63.634800 -11.754300 -0.000006 -0.000006 -0.004626 -0.057802 -18.924700
0.000000 0.000000 0.000000 0.000000 0.000000 -0.000000 -1.227590 92.002600 -1.419210 87.880200 -1.408790 5.366580 15.735700 0.000005 -0.000001 76.139800 87.713100 -75.638700 8.984550 -0.406207 -0.000000 -3.320440 -1.143620 0.969472 16.377300 -0.000001 -0.000001 -4.241230 -3.104290 1.038550 6.456720 -0.000001 -0.000000 -2.323400 -3.352200 1.172810 12.994200 -0.242716 4.980390 -85.382500 -10.403200 -65.902700 5.348090 -0.000007 -0.000001 -57.160700 -50.815500 -82.786000 24.328600 0.000019 0.000005 -0.444242 -0.240790 -61.543000 22.291600 -0.000001 0.000005 13.217300 5.603590 -11.559000 12.994500 -0.242716 -4.980390 91.980400 -4.657950 -66.935700 -5.348130 -0.000001 -0.000004 -47.926300 -51.019400 -91.718900 -24.328900 0.000322 -0.000009 -5.919100 -5.923550 -45.126100 -22.291500 -0.000108 -0.000004 16.812600 5.596760 -11.150700 -2.192480 -6.469440 -0.000000 -168.139000 -17.733300 -1.273360 39.081100 -0.000007 -0.000012 -0.179402 0.439512 22.204700 40.985400 -0.000006 -0.000013 -7.240440 -2.016440 -63.080400 11.754300 -0.000000 0.000003 -0.000101 -0.001041 -16.617500 -2.192510 6.469440 -0.000001 174.005000 21.170200 -179.714000 -39.081100 -0.002282 -0.040193 -0.006015 0.024317 20.999600 -40.985400 0.000008 0.000006 -2.212230 0.384534 -63.707600 -11.754300 -0.000006 -0.000006 -0.004820 -0.059715 -19.002700
